<svg clip-rule="evenodd" fill-rule="evenodd" stroke-linejoin="round" stroke-miterlimit="2" viewBox="0 0 5746 783" xmlns="http://www.w3.org/2000/svg"><g transform="matrix(7.51388 0 0 7.51388 -1524.14 -1340.97)"><g fill="#e1e1e1" fill-rule="nonzero"><path d="m296.317 214.06h-91.673l9.005 13.811-11.806 54.758h79.692c5.571 0 10.729-3.024 11.541-6.763l11.864-55.043c.802-3.729-3.054-6.763-8.623-6.763zm-28.28 51.4c-.402 1.87-2.985 3.387-5.766 3.387h-26.997l2.898-13.43h32.038zm5.138-23.826h-32.039l2.967-13.782h26.997c2.78 0 4.718 1.517 4.307 3.386z" transform="translate(1)"/><path d="m409.002 214.061h-20.36c-5.571 0-10.729 3.024-11.542 6.763l-9.26 42.964c-.402 1.868-2.986 3.386-5.765 3.386h-24.914l11.444-53.114h-42.474l9.044 13.792-10.346 48.014c-.803 3.738 3.055 6.763 8.624 6.763h70.685c5.571 0 10.73-3.024 11.542-6.763l13.322-61.806z"/><path d="m483.869 269.199h-45.095l11.884-55.141h-42.435l9.005 13.813-11.159 51.128c-.43 2.005 1.645 3.63 4.63 3.63h64.861c2.985 0 5.765-1.624 6.196-3.63l2.113-9.799z"/><path d="m594.71 214.06c-2.241 0-4.423.988-5.365 2.437l-21.985 33.851-7.929-36.288c-.49 0-21.036 0-20.929 0-4.482 0-8.849 1.987-10.728 4.875l-20.399 31.413-7.391-33.851c-.312-1.449-2.075-2.437-4.316-2.437h-30.688l8.995 13.801 11.951 54.765 21.41.005c4.483 0 8.85-1.988 10.728-4.875l20.048-30.865 7.726 35.735 21.483.005c4.483 0 8.85-1.988 10.729-4.875l41.366-63.696z"/><path d="m672.063 218.093c-1.096-2.447-4.366-4.033-8.35-4.033h-44.696l9.005 13.812-47.935 54.759h26.731c2.174 0 4.238-.958 5.642-2.619l9.142-10.811h43.413l3.916 9.459c.996 2.403 3.341 3.971 5.942 3.971h25.862zm-38.814 37.324 17.484-20.674 8.565 20.674z"/><path d="m797.389 213.707c-56.735 0-85.427.01-95.392.01l9.003 13.803-11.805 54.759h25.411c2.78 0 5.366-1.518 5.767-3.387l3.729-17.297h8.712c3.564 0 6.578 1.261 7.959 3.318l9.623 14.399c1.37 2.056 4.395 3.319 7.959 3.319h24.707l-13.93-20.861h7.9c5.57 0 10.728-3.024 11.542-6.764l7.409-34.379c.882-4.14-3.307-6.92-8.594-6.92zm-27.801 34.465h-32.588l4.493-20.849h32.588z" transform="translate(1)"/><path d="m906.81 214.069h-24.698c-3.562 0-7.136 1.263-9.386 3.32l-30.189 27.515c-.01.01-.019.02-.029.029 2.662-12.343 5.275-24.462 6.656-30.873h-42.435l9.006 13.811-11.806 54.76h25.412c2.78 0 5.366-1.519 5.766-3.379 1.224-5.657 3.495-16.239 5.922-27.486.01.009.01.019.01.028l18.326 27.516c1.37 2.057 4.394 3.319 7.958 3.319h24.698l-22.908-34.28z" transform="translate(1)"/></g><path d="m679.032 160.167c0 1.419 1.112 5.84 2.268 6.997 1.157 1.157 5.579 2.268 6.997 2.268-1.418 0-5.84 1.112-6.997 2.268-1.156 1.157-2.268 5.578-2.268 6.997 0-1.419-1.111-5.84-2.268-6.997-1.157-1.156-5.578-2.268-6.997-2.268 1.419 0 5.84-1.111 6.997-2.268s2.268-5.578 2.268-6.997z" fill="#37ed2e" transform="matrix(4.45724 0 0 2.57515 -2100.42 -233.989)"/></g></svg>