<svg clip-rule="evenodd" fill-rule="evenodd" stroke-linejoin="round" stroke-miterlimit="2" viewBox="0 0 5133 1201" xmlns="http://www.w3.org/2000/svg"><g transform="translate(-1819.47 -1265.54)"><path fill="#ed2e15" d="m2561.99 1517.36c0 84.72-32.95 149.24-98.85 193.57-65.89 44.32-161.6 66.48-287.12 66.48h-100.02v207.1c0 29.81 1.97 53.94 5.89 72.37 3.92 18.44 12.16 32.75 24.71 42.95s29.81 16.87 51.77 20.01c21.97 3.13 51.39 4.7 88.26 4.7v47.07h-467.16v-47.07c25.89-.78 47.07-3.13 63.54-7.06 16.48-3.92 29.03-10.59 37.66-20 8.63-9.42 14.51-22.75 17.65-40.01s4.71-39.62 4.71-67.07v-543.65c0-27.45-1.38-49.62-4.12-66.48-2.75-16.87-8.04-30.2-15.89-40.01-7.84-9.81-19.02-16.47-33.53-20-14.52-3.53-33.54-6.08-57.08-7.65v-47.07h407.15c119.24 0 209.45 21.18 270.64 63.54s91.79 105.12 91.79 188.28zm-485.99 189.45h76.49c76.1 0 131.79-15.3 167.09-45.89 35.31-30.6 52.96-78.84 52.96-144.74 0-58.84-14.91-104.34-44.72-136.5s-76.49-48.25-140.03-48.25h-90.61c-14.12 0-21.18 6.67-21.18 20.01z" fill-rule="nonzero" transform="translate(40)"/><path fill="#ed2e15" d="m2867.93 1989.22c0 30.6 1.38 54.72 4.12 72.37 2.75 17.65 8.44 31.18 17.07 40.59 8.62 9.42 21.18 15.5 37.65 18.24 16.47 2.75 38.44 4.12 65.9 4.12v47.07h-393.03v-47.07c23.54-1.57 42.37-3.92 56.48-7.06 14.13-3.14 24.72-9.41 31.78-18.82 7.06-9.42 11.57-22.95 13.53-40.6s2.94-41.38 2.94-71.19v-143.56c0-48.64-1.18-87.47-3.53-116.5-2.35-29.02-7.45-51.38-15.3-67.07-7.84-15.69-19.02-26.09-33.53-31.18-14.52-5.1-33.54-7.65-57.07-7.65v-41.19l235.34-43.54 18.83 135.33h4.7c21.18-41.58 49.03-74.53 83.55-98.85s71-36.48 109.44-36.48c29.81 0 54.13 7.46 72.95 22.36 18.83 14.91 28.24 33.73 28.24 56.48 0 25.11-7.25 46.29-21.77 63.55-14.51 17.26-34.32 25.88-59.42 25.88-11.77 0-22.36-2.35-31.77-7.06-9.41-4.7-17.85-10-25.3-15.88-7.45-5.89-14.91-11.38-22.36-16.48s-15.1-7.65-22.94-7.65c-14.91 0-29.03 9.81-42.37 29.42-13.33 19.61-24.32 45.89-32.94 78.84-6.28 23.54-11.38 50.01-15.3 79.43s-5.89 58.64-5.89 87.67z" fill-rule="nonzero" transform="translate(40)"/><path fill="#ed2e15" d="m4116.09 3178.75c179.02 0 324.36 145.34 324.36 324.36s-145.34 324.36-324.36 324.36c-179.01 0-324.36-145.34-324.36-324.36s145.35-324.36 324.36-324.36zm-2.68 77.89c-8.7 8.71-134.63 69.72-184.73 69.72 0 320.38 160.42 417.45 184.73 417.45 24.32 0 187.68-96.51 187.68-417.45-52.78 0-178.84-60.89-187.68-69.72z" transform="translate(-580.638 -1642.21)"/><g fill-rule="nonzero"><path fill="#ed2e15" d="m3915.21 1612.67v-52.95c47.07-13.34 86.49-33.54 118.26-60.6 31.78-27.07 55.51-58.25 71.2-93.55h60.01v142.38h135.32v64.72h-135.32v361.25c0 48.64 5.29 83.16 15.88 103.55 10.59 20.4 28.44 30.6 53.55 30.6 30.59 0 53.73-14.12 69.42-42.36l24.71 34.12c-21.96 55.7-73.74 83.55-155.33 83.55-54.12 0-96.29-12.55-126.49-37.66-30.2-25.1-45.31-60.4-45.31-105.9v-427.15z"/><path fill="#ed2e15" d="m4417.67 2171.61h-36.48v-214.16h49.43c13.33 56.48 32.55 97.67 57.66 123.55 25.1 25.89 57.66 38.84 97.66 38.84 29.03 0 51.58-6.08 67.67-18.24 16.08-12.16 24.12-28.83 24.12-50.01 0-21.97-9.81-43.35-29.42-64.13-19.61-20.79-51.38-42.95-95.32-66.49-59.61-32.16-102.37-64.13-128.26-95.9-25.88-31.77-38.83-67.66-38.83-107.67 0-25.89 4.9-50.01 14.71-72.37s23.14-41.77 40.01-58.25c16.86-16.47 37.07-29.22 60.6-38.24s49.03-13.53 76.49-13.53c24.32 0 48.44 3.53 72.36 10.59 23.93 7.06 44.92 16.86 62.96 29.42l21.18-28.25h30.6v177.69h-45.9c-18.04-44.72-36.67-76.88-55.89-96.49s-42.56-29.42-70.02-29.42c-21.96 0-39.42 5.88-52.36 17.65s-19.42 27.46-19.42 47.07c0 21.96 9.61 42.75 28.83 62.36 19.22 19.62 51.19 41.19 95.91 64.73 31.38 17.25 58.44 34.12 81.19 50.59 22.75 16.48 41.19 33.15 55.3 50.01 14.13 16.87 24.52 34.52 31.19 52.96 6.67 18.43 10 38.24 10 59.42 0 27.46-5.1 52.17-15.3 74.13-10.19 21.97-24.71 40.8-43.53 56.49-18.83 15.69-41.39 27.84-67.67 36.47s-55.5 12.95-87.66 12.95c-33.74 0-65.11-4.51-94.14-13.53-29.02-9.03-52.95-22.17-71.78-39.42z"/><path fill="#ed2e15" d="m5104.88 1624.44h4.7c51.78-58.84 119.24-88.26 202.4-88.26 45.5 0 87.27 8.04 125.32 24.13 38.05 16.08 70.99 38.44 98.84 67.07s49.43 62.76 64.72 102.37c15.3 39.62 22.95 82.96 22.95 130.03s-7.65 90.22-22.95 129.44c-15.29 39.22-36.67 73.35-64.13 102.37-27.45 29.03-60.21 51.58-98.25 67.67-38.05 16.08-79.43 24.12-124.15 24.12-76.09 0-134.14-25.89-174.15-77.66h-4.71v163.56c0 31.38 1.57 56.48 4.71 75.31s9.8 33.34 20 43.54 24.52 17.26 42.95 21.18c18.44 3.92 42.95 6.27 73.55 7.06v49.42h-405.97v-49.42c21.18-.79 38.44-3.14 51.77-7.06 13.34-3.92 23.74-10.98 31.19-21.18s12.55-24.12 15.3-41.78c2.74-17.65 4.11-40.59 4.11-68.83v-437.74c0-36.09-.78-70.41-2.35-102.97-1.57-32.55-3.53-55.5-5.88-68.83-3.93-18.05-12.75-30.6-26.48-37.66s-37.07-10.59-70.01-10.59v-45.89l236.52-32.95zm200.04-21.18c-25.1 0-49.03 5.49-71.78 16.47s-40.79 25.5-54.13 43.54-23.53 40.6-30.6 67.66c-7.06 27.07-10.59 56.29-10.59 87.67v80.01c0 55.7 13.73 103.16 41.19 142.39 29.81 43.14 71.78 64.72 125.91 64.72 47.85 0 83.35-19.81 106.49-59.43s34.71-101 34.71-184.16c0-172.58-47.06-258.87-141.2-258.87z"/><path fill="#ed2e15" d="m6286.3 2062.18c-71.39 80.8-160.42 121.2-267.11 121.2-48.64 0-92.77-7.65-132.38-22.95-39.62-15.29-73.55-36.87-101.79-64.72s-50.21-60.99-65.9-99.43-23.53-81.19-23.53-128.26c0-48.64 8.24-93.16 24.71-133.56s39.81-75.31 70.02-104.73c30.2-29.41 65.89-52.36 107.08-68.84 41.18-16.47 86.49-24.71 135.91-24.71 83.15 0 147.87 22.36 194.16 67.08 46.28 44.71 69.42 107.47 69.42 188.27 0 12.55-1.96 20.2-5.88 22.95-3.92 2.74-14.91 4.12-32.95 4.12h-378.9c-3.14 7.06-4.71 20-4.71 38.83 0 76.88 16.67 137.67 50.01 182.39 33.34 44.71 78.64 67.07 135.91 67.07 32.95 0 65.7-7.45 98.26-22.36 32.55-14.9 64.13-36.08 94.72-63.54zm-228.28-309.48c31.38 0 51.58-1.77 60.6-5.3s13.53-11.96 13.53-25.29c0-34.52-9.8-62.76-29.42-84.73-19.61-21.96-44.32-32.95-74.13-32.95-33.73 0-63.74 13.93-90.02 41.78s-43.34 63.34-51.19 106.49z"/><path fill="#ed2e15" d="m6942.91 2073.94c-29.81 32.95-66.88 58.45-111.2 76.49s-92.37 27.06-144.15 27.06c-47.85 0-91.39-7.64-130.61-22.94-39.23-15.3-72.96-36.68-101.2-64.13-28.24-27.46-50.01-60.6-65.31-99.43-15.3-38.84-22.95-81.79-22.95-128.86 0-48.63 8.24-92.96 24.72-132.97 16.47-40 39.61-74.32 69.42-102.96 29.81-28.63 65.51-50.79 107.08-66.48 41.58-15.69 87.47-23.54 137.68-23.54 35.3 0 68.05 3.53 98.26 10.59 30.2 7.06 56.09 16.87 77.66 29.42s38.63 27.26 51.19 44.13c12.55 16.86 18.82 35.1 18.82 54.72 0 22.75-6.47 40.79-19.41 54.12-12.95 13.34-30.4 20.01-52.37 20.01-18.04 0-33.93-4.71-47.65-14.12-13.73-9.42-27.26-24.71-40.6-45.89-11.77-18.83-21.77-33.74-30.01-44.72-8.23-10.98-15.88-19.41-22.94-25.3-7.06-5.88-14.12-9.8-21.18-11.76-7.06-1.97-15.69-2.95-25.89-2.95-45.5 0-80.8 21.18-105.91 63.55-25.1 42.36-37.65 101.59-37.65 177.68 0 81.59 15.1 144.34 45.3 188.27 30.21 43.94 73.55 65.9 130.03 65.9 32.16 0 64.33-6.08 96.49-18.24s62.76-29.61 91.79-52.36z"/></g></g></svg>