<?xml version="1.0" encoding="UTF-8" standalone="no"?>
<!DOCTYPE svg PUBLIC "-//W3C//DTD SVG 1.1//EN" "http://www.w3.org/Graphics/SVG/1.1/DTD/svg11.dtd">
<svg width="100%" height="100%" viewBox="0 0 5291 1191" version="1.1" xmlns="http://www.w3.org/2000/svg" xmlns:xlink="http://www.w3.org/1999/xlink" xml:space="preserve" xmlns:serif="http://www.serif.com/" style="fill-rule:evenodd;clip-rule:evenodd;stroke-linejoin:round;stroke-miterlimit:2;">
    <g transform="matrix(1.28338,0,0,1.28338,-2578.49,-1952.32)">
        <path d="M2016.04,2195.78L2012.59,2142.92L2080.39,2125.68C2081.92,2122.62 2083.07,2114.19 2083.84,2100.4C2084.6,2086.61 2085.37,2067.65 2086.13,2043.52C2086.9,2019.39 2087.28,1990.47 2087.28,1956.76L2088.43,1755.66C2088.43,1723.48 2088.05,1695.52 2087.28,1671.77C2086.52,1648.02 2085.75,1629.06 2084.99,1614.89C2084.22,1600.72 2083.07,1592.48 2081.54,1590.18L2009.14,1574.1L2012.59,1521.24L2288.38,1521.24C2376.48,1521.24 2443.13,1538.09 2488.33,1571.8C2533.53,1605.51 2556.13,1654.15 2556.13,1717.74C2556.13,1759.87 2545.02,1797.41 2522.81,1830.35C2500.59,1863.3 2469.37,1889.15 2429.15,1907.92C2388.93,1926.69 2341.63,1936.08 2287.23,1936.08C2272.68,1936.08 2258.7,1935.31 2245.29,1933.78C2231.88,1932.24 2219.05,1930.33 2206.79,1928.03L2206.79,1853.34C2218.28,1857.93 2230.54,1861.57 2243.57,1864.25C2256.59,1866.93 2270.76,1868.28 2286.08,1868.28C2325.92,1868.28 2356.76,1856.78 2378.59,1833.8C2400.42,1810.82 2411.34,1777.11 2411.34,1732.68C2411.34,1680.58 2398.12,1642.28 2371.7,1617.76C2345.26,1593.25 2310.22,1580.99 2266.55,1580.99L2225.18,1580.99C2225.18,1586.35 2224.99,1596.7 2224.61,1612.02C2224.22,1627.34 2223.84,1647.07 2223.46,1671.2C2223.07,1695.33 2222.88,1723.48 2222.88,1755.66L2224.03,1956.76C2224.03,1990.47 2224.41,2019.39 2225.18,2043.52C2225.95,2067.65 2226.9,2086.42 2228.05,2099.83C2229.2,2113.23 2230.16,2121.47 2230.93,2124.53L2324.01,2140.62L2320.56,2195.78L2016.04,2195.78Z" style="fill:rgb(237,46,21);fill-rule:nonzero;"/>
        <path d="M2600.21,2195.78L2596.76,2146.37L2668.01,2127.98C2668.78,2124.92 2669.54,2118.41 2670.31,2108.45C2671.08,2098.49 2671.84,2085.27 2672.61,2068.8C2673.38,2052.33 2673.76,2032.99 2673.76,2010.77L2674.91,1923.43C2674.91,1899.69 2674.14,1877.66 2672.61,1857.36C2671.08,1837.06 2668.39,1818.1 2664.57,1800.48L2591.02,1784.39L2591.02,1737.27L2776.03,1687.86L2801.31,1706.25L2796.72,1798.18L2800.16,1799.33C2822.38,1756.43 2844.98,1727.32 2867.96,1711.99C2890.95,1696.67 2913.93,1689.01 2936.91,1689.01C2956.83,1689.01 2973.88,1694.37 2988.05,1705.1C3002.22,1715.82 3009.31,1732.29 3009.31,1754.51C3009.31,1776.73 3001.64,1793.97 2986.32,1806.22C2971,1818.48 2952.62,1824.61 2931.16,1824.61C2914.31,1824.61 2898.99,1821.54 2885.2,1815.41C2871.41,1809.29 2856.85,1798.94 2841.53,1784.39L2869.11,1787.84C2856.85,1797.03 2844.98,1808.71 2833.49,1822.88C2822,1837.06 2811.65,1853.72 2802.46,1872.87L2803.61,1968.25C2804.38,1993.53 2805.14,2017.09 2805.91,2038.92C2806.68,2060.76 2807.44,2079.53 2808.21,2095.23C2808.97,2110.94 2809.74,2121.85 2810.51,2127.98L2910.48,2144.07L2907.03,2195.78L2600.21,2195.78Z" style="fill:rgb(237,46,21);fill-rule:nonzero;"/>
        <g transform="matrix(0.801,0,0,0.801,3.43386,-860.827)">
            <path d="M4116.09,3178.75C4295.11,3178.75 4440.45,3324.09 4440.45,3503.11C4440.45,3682.13 4295.11,3827.47 4116.09,3827.47C3937.08,3827.47 3791.73,3682.13 3791.73,3503.11C3791.73,3324.09 3937.08,3178.75 4116.09,3178.75ZM4113.41,3256.64C4104.71,3265.35 3978.78,3326.36 3928.68,3326.36C3928.68,3646.74 4089.1,3743.81 4113.41,3743.81C4137.73,3743.81 4301.09,3647.3 4301.09,3326.36C4248.31,3326.36 4122.25,3265.47 4113.41,3256.64Z" style="fill:rgb(237,46,21);"/>
        </g>
        <g transform="matrix(1,0,0,1,15.5839,0)">
            <path d="M4004.14,2107.3C3991.88,2137.94 3971.39,2162.07 3942.66,2179.69C3913.93,2197.31 3882.71,2206.12 3849.01,2206.12C3797.68,2206.12 3755.73,2191.18 3723.17,2161.31C3690.62,2131.43 3674.34,2086.23 3674.34,2025.71L3677.78,1763.7L3597.34,1763.7L3597.34,1730.38L3775.46,1583.29L3808.78,1583.29L3806.49,1734.98L3804.19,2010.77C3804.19,2045.24 3812.23,2070.33 3828.32,2086.04C3844.41,2101.74 3867.01,2109.6 3896.12,2109.6C3911.44,2109.6 3926.19,2106.53 3940.36,2100.4C3954.53,2094.27 3966.98,2086.23 3977.71,2076.27L4004.14,2107.3ZM3746.73,1763.7L3746.73,1695.9L3971.96,1695.9L3971.96,1763.7L3746.73,1763.7Z" style="fill:rgb(237,46,21);fill-rule:nonzero;"/>
        </g>
        <g transform="matrix(1,0,0,1,31.1677,0)">
            <path d="M4204.5,2204.97C4173.86,2204.97 4143.22,2201.53 4112.57,2194.63C4081.93,2187.74 4056.26,2178.54 4035.58,2167.05L4029.83,2036.05L4097.63,2036.05L4121.77,2118.79C4149.34,2136.41 4179.61,2145.22 4212.55,2145.22C4237.06,2145.22 4256.21,2139.86 4270,2129.13C4283.79,2118.41 4290.69,2104.23 4290.69,2086.61C4290.69,2068.23 4283.79,2052.52 4270,2039.5C4256.21,2026.47 4228.25,2011.92 4186.12,1995.83C4130.19,1974.38 4091.12,1951.78 4068.9,1928.03C4046.69,1904.28 4035.58,1874.4 4035.58,1838.4C4035.58,1808.52 4044.77,1782.09 4063.16,1759.11C4081.55,1736.12 4107.02,1718.12 4139.58,1705.1C4172.14,1692.07 4209.86,1685.56 4252.77,1685.56C4276.52,1685.56 4300.46,1687.67 4324.59,1691.88C4348.72,1696.1 4368.83,1702.03 4384.92,1709.69L4397.56,1838.4L4330.91,1838.4L4304.48,1757.96C4296.82,1753.36 4287.62,1749.72 4276.9,1747.04C4266.17,1744.36 4255.45,1743.02 4244.72,1743.02C4220.21,1743.02 4200.48,1748.57 4185.54,1759.68C4170.6,1770.79 4163.13,1785.15 4163.13,1802.78C4163.13,1821.93 4171.75,1838.02 4188.99,1851.04C4206.23,1864.06 4237.06,1880.15 4281.49,1899.3C4332.06,1920.75 4367.87,1942.97 4388.94,1965.95C4410.01,1988.93 4420.54,2017.28 4420.54,2050.99C4420.54,2096.95 4400.43,2134.11 4360.21,2162.45C4319.99,2190.8 4268.09,2204.97 4204.5,2204.97Z" style="fill:rgb(237,46,21);fill-rule:nonzero;"/>
        </g>
        <g transform="matrix(1,0,0,1,31.1677,0)">
            <path d="M4484.16,2448.59L4480.71,2399.18L4551.96,2380.79C4551.96,2376.96 4552.34,2369.3 4553.11,2357.81C4553.87,2346.32 4554.45,2331.38 4554.83,2312.99C4555.21,2294.61 4555.79,2273.16 4556.55,2248.64C4557.32,2224.13 4557.7,2196.93 4557.7,2167.05L4560,1921.14C4560,1898.15 4559.23,1876.7 4557.7,1856.78C4556.17,1836.87 4553.49,1818.1 4549.66,1800.48L4476.11,1784.39L4476.11,1737.27L4663.42,1687.86L4691,1707.4L4682.96,1774.05L4686.41,1775.2C4705.56,1747.62 4728.54,1725.78 4755.35,1709.69C4782.17,1693.61 4810.9,1685.56 4841.54,1685.56C4879.84,1685.56 4915.08,1695.33 4947.26,1714.87C4979.44,1734.4 5005.29,1762.17 5024.83,1798.18C5044.36,1834.18 5054.13,1877.09 5054.13,1926.88C5054.13,1977.44 5042.64,2023.6 5019.66,2065.35C4996.67,2107.11 4964.5,2140.62 4923.13,2165.9C4881.76,2191.18 4833.49,2203.82 4778.34,2203.82C4763.78,2203.82 4748.46,2202.48 4732.37,2199.8C4716.28,2197.12 4701.34,2193.1 4687.56,2187.74L4687.56,2264.73C4687.56,2291.54 4688.13,2316.06 4689.28,2338.27C4690.43,2360.49 4691.39,2374.66 4692.15,2380.79L4786.38,2398.03L4782.93,2448.59L4484.16,2448.59ZM4780.64,2130.28C4807.45,2130.28 4830.62,2123.96 4850.16,2111.32C4869.69,2098.68 4885.21,2079.53 4896.7,2053.86C4908.19,2028.2 4913.94,1996.21 4913.94,1957.91C4914.7,1919.6 4909.15,1887.62 4897.27,1861.95C4885.4,1836.29 4869.89,1816.95 4850.73,1803.92C4831.58,1790.9 4810.13,1784.39 4786.38,1784.39C4767.23,1784.39 4749.23,1788.79 4732.37,1797.6C4715.52,1806.41 4700.58,1819.25 4687.56,1836.1L4687.56,2102.7C4699.81,2111.13 4714.18,2117.83 4730.65,2122.81C4747.12,2127.79 4763.78,2130.28 4780.64,2130.28Z" style="fill:rgb(237,46,21);fill-rule:nonzero;"/>
        </g>
        <g transform="matrix(1,0,0,1,15.5839,0)">
            <path d="M5387.79,2204.97C5340.3,2204.97 5297.59,2194.25 5259.66,2172.8C5221.74,2151.35 5192.06,2121.66 5170.61,2083.74C5149.16,2045.82 5138.43,2002.34 5138.43,1953.31C5138.43,1899.69 5150.31,1852.76 5174.05,1812.54C5197.8,1772.32 5228.83,1740.91 5267.13,1718.31C5305.44,1695.71 5346.43,1684.8 5390.09,1685.56C5456.74,1686.33 5507.5,1707.4 5542.35,1748.77C5577.21,1790.13 5594.64,1844.14 5594.64,1910.79L5594.64,1936.08L5254.49,1936.08L5254.49,1878.62L5494.66,1878.62L5478.58,1902.75L5478.58,1868.28C5478.58,1829.97 5469.96,1799.71 5452.72,1777.49C5435.48,1755.28 5411.54,1744.17 5380.9,1744.17C5360.98,1744.17 5342.6,1749.91 5325.74,1761.41C5308.89,1772.9 5295.48,1790.13 5285.52,1813.12C5275.56,1836.1 5270.58,1864.83 5270.58,1899.3L5270.58,1919.99C5270.58,1976.68 5285.33,2021.88 5314.82,2055.59C5344.32,2089.29 5383.58,2106.15 5432.61,2106.15C5458.66,2106.15 5482.22,2101.36 5503.28,2091.78C5524.35,2082.21 5545.23,2065.55 5565.91,2041.8L5599.24,2071.67C5577.78,2116.11 5548.48,2149.43 5511.33,2171.65C5474.17,2193.87 5432.99,2204.97 5387.79,2204.97Z" style="fill:rgb(237,46,21);fill-rule:nonzero;"/>
        </g>
        <path d="M5923.71,2204.97C5876.98,2204.97 5834.65,2194.63 5796.73,2173.95C5758.81,2153.26 5728.54,2124.15 5705.94,2086.61C5683.35,2049.07 5672.05,2005.79 5672.05,1956.76C5672.05,1907.73 5683.92,1862.72 5707.67,1821.74C5731.42,1780.75 5764.17,1747.81 5805.92,1722.91C5847.67,1698.01 5895.36,1685.56 5948.99,1685.56C5982.7,1685.56 6012.38,1689.97 6038.05,1698.78C6063.71,1707.59 6083.82,1719.65 6098.38,1734.98C6112.93,1750.3 6120.21,1767.15 6120.21,1785.54C6120.21,1802.39 6115.04,1815.41 6104.7,1824.61C6094.35,1833.8 6081.14,1838.4 6065.05,1838.4C6051.26,1838.4 6039.19,1835.72 6028.85,1830.35C6018.51,1824.99 6006.44,1816.18 5992.65,1803.92L5916.81,1734.98L5969.67,1747.62C5944.39,1742.25 5919.69,1745.51 5895.55,1757.38C5871.42,1769.26 5851.69,1788.99 5836.37,1816.57C5821.05,1844.14 5813.39,1879.38 5813.39,1922.29C5813.39,1982.04 5828.14,2027.43 5857.63,2058.46C5887.13,2089.49 5923.71,2105 5967.37,2105C5991.89,2105 6014.68,2100.02 6035.75,2090.06C6056.82,2080.1 6077.31,2063.25 6097.23,2039.5L6131.7,2070.52C6110.25,2114.96 6081.14,2148.47 6044.37,2171.07C6007.59,2193.67 5967.37,2204.97 5923.71,2204.97Z" style="fill:rgb(237,46,21);fill-rule:nonzero;"/>
    </g>
</svg>
